<svg xmlns="http://www.w3.org/2000/svg" viewBox="0 0 408.99 411.26"><defs><style>.cls-1,.cls-3,.cls-4{fill:#fff;}.cls-2{opacity:0.8;}.cls-3{font-size:19.38px;font-family:SFUIDisplay-Medium, SF UI Display;}.cls-4{opacity:0.2;}.cls-5{fill:red;}</style></defs><title>资源 2</title><g id="图层_2" data-name="图层 2"><g id="图层_1-2" data-name="图层 1"><rect class="cls-1" x="202.29" y="346.64" width="3.92" height="23.55"/><rect class="cls-1" x="277.84" y="326.4" width="3.92" height="23.55" transform="translate(-131.6 185.21) rotate(-30)"/><rect class="cls-1" x="333.14" y="271.1" width="3.92" height="23.55" transform="translate(-77.43 431.64) rotate(-60)"/><rect class="cls-1" x="353.38" y="195.56" width="3.92" height="23.55" transform="translate(148 562.68) rotate(-90)"/><rect class="cls-1" x="333.14" y="120.02" width="3.92" height="23.55" transform="translate(388.51 487.9) rotate(-120)"/><rect class="cls-1" x="277.84" y="64.72" width="3.92" height="23.55" transform="translate(483.86 282.64) rotate(-150)"/><rect class="cls-1" x="202.29" y="44.48" width="3.92" height="23.55" transform="translate(408.51 112.51) rotate(-180)"/><rect class="cls-1" x="126.75" y="64.72" width="3.92" height="23.55" transform="translate(278.43 78.39) rotate(150)"/><rect class="cls-1" x="71.45" y="120.02" width="3.92" height="23.55" transform="translate(224.26 134.11) rotate(120)"/><rect class="cls-1" x="51.21" y="195.56" width="3.92" height="23.55" transform="translate(260.51 154.16) rotate(90)"/><rect class="cls-1" x="71.45" y="271.1" width="3.92" height="23.55" transform="translate(281.69 77.86) rotate(60)"/><rect class="cls-1" x="126.75" y="326.4" width="3.92" height="23.55" transform="translate(186.33 -19.05) rotate(30)"/><g class="cls-2"><rect class="cls-1" x="208.74" y="346.55" width="1.57" height="23.55" transform="translate(-12.38 7.53) rotate(-2)"/><rect class="cls-1" x="214.01" y="346.28" width="1.57" height="23.55" transform="translate(-24.45 15.86) rotate(-4)"/><rect class="cls-1" x="219.26" y="345.82" width="1.57" height="23.55" transform="translate(-36.17 24.96) rotate(-6)"/><rect class="cls-1" x="224.5" y="345.17" width="1.57" height="23.55" transform="translate(-47.49 34.83) rotate(-8)"/><rect class="cls-1" x="229.71" y="344.35" width="1.57" height="23.55" transform="translate(-58.34 45.43) rotate(-10)"/><rect class="cls-1" x="234.88" y="343.34" width="1.57" height="23.55" transform="translate(-68.68 56.76) rotate(-12)"/><rect class="cls-1" x="240.02" y="342.16" width="1.57" height="23.55" transform="translate(-78.47 68.77) rotate(-14)"/><rect class="cls-1" x="245.12" y="340.79" width="1.57" height="23.55" transform="matrix(0.96, -0.28, 0.28, 0.96, -87.65, 81.44)"/><rect class="cls-1" x="250.16" y="339.25" width="1.57" height="23.55" transform="translate(-96.19 94.73) rotate(-18)"/><rect class="cls-1" x="255.14" y="337.53" width="1.57" height="23.55" transform="translate(-104.04 108.6) rotate(-20)"/><rect class="cls-1" x="260.07" y="335.64" width="1.57" height="23.55" transform="translate(-111.15 123.01) rotate(-22)"/><rect class="cls-1" x="264.92" y="333.58" width="1.57" height="23.55" transform="translate(-117.5 137.93) rotate(-24)"/><rect class="cls-1" x="269.7" y="331.35" width="1.57" height="23.55" transform="translate(-123.04 153.3) rotate(-26)"/><rect class="cls-1" x="274.4" y="328.96" width="1.57" height="23.55" transform="translate(-127.75 169.08) rotate(-28)"/><rect class="cls-1" x="283.53" y="323.69" width="1.57" height="23.55" transform="translate(-134.57 201.64) rotate(-32)"/><rect class="cls-1" x="287.96" y="320.81" width="1.57" height="23.55" transform="matrix(0.83, -0.56, 0.56, 0.83, -136.62, 218.32)"/><rect class="cls-1" x="292.28" y="317.79" width="1.57" height="23.55" transform="translate(-137.74 235.2) rotate(-36)"/><rect class="cls-1" x="296.49" y="314.62" width="1.57" height="23.55" transform="translate(-137.93 252.21) rotate(-38)"/><rect class="cls-1" x="300.59" y="311.3" width="1.57" height="23.55" transform="translate(-137.16 269.3) rotate(-40)"/><rect class="cls-1" x="304.57" y="307.84" width="1.57" height="23.55" transform="translate(-135.43 286.41) rotate(-42)"/><rect class="cls-1" x="308.42" y="304.24" width="1.57" height="23.55" transform="translate(-132.74 303.49) rotate(-44)"/><rect class="cls-1" x="312.15" y="300.51" width="1.57" height="23.55" transform="translate(-129.09 320.46) rotate(-46)"/><rect class="cls-1" x="315.75" y="296.66" width="1.57" height="23.55" transform="translate(-124.48 337.28) rotate(-48)"/><rect class="cls-1" x="319.21" y="292.68" width="1.57" height="23.55" transform="translate(-118.92 353.88) rotate(-50)"/><rect class="cls-1" x="322.53" y="288.58" width="1.57" height="23.55" transform="translate(-112.42 370.21) rotate(-52)"/><rect class="cls-1" x="325.7" y="284.37" width="1.57" height="23.55" transform="matrix(0.59, -0.81, 0.81, 0.59, -105, 386.21)"/><rect class="cls-1" x="328.72" y="280.05" width="1.57" height="23.55" transform="translate(-96.68 401.81) rotate(-56)"/><rect class="cls-1" x="331.6" y="275.62" width="1.57" height="23.55" transform="translate(-87.48 416.98) rotate(-58)"/><rect class="cls-1" x="336.87" y="266.49" width="1.57" height="23.55" transform="translate(-66.56 445.76) rotate(-62)"/><rect class="cls-1" x="339.26" y="261.79" width="1.57" height="23.55" transform="translate(-54.9 459.28) rotate(-64)"/><rect class="cls-1" x="341.49" y="257.01" width="1.57" height="23.55" transform="translate(-42.49 472.15) rotate(-66)"/><rect class="cls-1" x="343.55" y="252.16" width="1.57" height="23.55" transform="translate(-29.37 484.33) rotate(-68)"/><rect class="cls-1" x="345.44" y="247.24" width="1.57" height="23.55" transform="translate(-15.58 495.77) rotate(-70)"/><rect class="cls-1" x="347.16" y="242.25" width="1.57" height="23.55" transform="translate(-1.17 506.44) rotate(-72)"/><rect class="cls-1" x="348.7" y="237.21" width="1.57" height="23.55" transform="translate(13.82 516.3) rotate(-74)"/><rect class="cls-1" x="350.07" y="232.11" width="1.57" height="23.55" transform="translate(29.33 525.31) rotate(-76)"/><rect class="cls-1" x="351.25" y="226.97" width="1.57" height="23.55" transform="translate(45.31 533.45) rotate(-78)"/><rect class="cls-1" x="352.26" y="221.8" width="1.57" height="23.55" transform="translate(61.71 540.69) rotate(-80)"/><rect class="cls-1" x="353.08" y="216.59" width="1.57" height="23.55" transform="translate(78.48 547.01) rotate(-82)"/><rect class="cls-1" x="353.73" y="211.35" width="1.57" height="23.55" transform="translate(95.55 552.37) rotate(-84)"/><rect class="cls-1" x="354.19" y="206.1" width="1.57" height="23.55" transform="translate(112.86 556.78) rotate(-86)"/><rect class="cls-1" x="354.46" y="200.83" width="1.57" height="23.55" transform="translate(130.37 560.22) rotate(-88)"/><rect class="cls-1" x="354.46" y="190.29" width="1.57" height="23.55" transform="translate(165.7 564.15) rotate(-92)"/><rect class="cls-1" x="354.19" y="185.02" width="1.57" height="23.55" transform="translate(183.41 564.63) rotate(-94)"/><rect class="cls-1" x="353.73" y="179.77" width="1.57" height="23.55" transform="translate(201.07 564.14) rotate(-96)"/><rect class="cls-1" x="353.08" y="174.54" width="1.57" height="23.55" transform="translate(218.62 562.66) rotate(-98)"/><rect class="cls-1" x="352.26" y="169.33" width="1.57" height="23.55" transform="translate(236 560.23) rotate(-100)"/><rect class="cls-1" x="351.25" y="164.15" width="1.57" height="23.55" transform="translate(253.15 556.85) rotate(-102)"/><rect class="cls-1" x="350.07" y="159.01" width="1.57" height="23.55" transform="translate(270.02 552.53) rotate(-104)"/><rect class="cls-1" x="348.7" y="153.92" width="1.57" height="23.55" transform="translate(286.54 547.31) rotate(-106)"/><rect class="cls-1" x="347.16" y="148.88" width="1.57" height="23.55" transform="translate(302.68 541.21) rotate(-108)"/><rect class="cls-1" x="345.44" y="143.89" width="1.57" height="23.55" transform="translate(318.37 534.25) rotate(-110)"/><rect class="cls-1" x="343.55" y="138.97" width="1.57" height="23.55" transform="translate(333.56 526.47) rotate(-112)"/><rect class="cls-1" x="341.49" y="134.11" width="1.57" height="23.55" transform="translate(348.22 517.91) rotate(-114)"/><rect class="cls-1" x="339.26" y="129.33" width="1.57" height="23.55" transform="translate(362.29 508.6) rotate(-116)"/><rect class="cls-1" x="336.87" y="124.63" width="1.57" height="23.55" transform="translate(375.73 498.58) rotate(-118)"/><rect class="cls-1" x="331.6" y="115.5" width="1.57" height="23.55" transform="translate(400.58 476.6) rotate(-122)"/><rect class="cls-1" x="328.72" y="111.08" width="1.57" height="23.55" transform="translate(411.92 464.73) rotate(-124)"/><rect class="cls-1" x="325.7" y="106.76" width="1.57" height="23.55" transform="translate(422.49 452.34) rotate(-126)"/><rect class="cls-1" x="322.53" y="102.55" width="1.57" height="23.55" transform="translate(432.27 439.48) rotate(-128)"/><rect class="cls-1" x="319.21" y="98.45" width="1.57" height="23.55" transform="translate(441.24 426.2) rotate(-130)"/><rect class="cls-1" x="315.75" y="94.47" width="1.57" height="23.55" transform="translate(449.38 412.56) rotate(-132)"/><rect class="cls-1" x="312.15" y="90.61" width="1.57" height="23.55" transform="translate(456.67 398.62) rotate(-134)"/><rect class="cls-1" x="308.42" y="86.88" width="1.57" height="23.55" transform="translate(463.1 384.42) rotate(-136)"/><rect class="cls-1" x="304.57" y="83.29" width="1.57" height="23.55" transform="translate(468.66 370.02) rotate(-138)"/><rect class="cls-1" x="300.59" y="79.83" width="1.57" height="23.55" transform="translate(473.35 355.49) rotate(-140)"/><rect class="cls-1" x="296.49" y="76.51" width="1.57" height="23.55" transform="translate(477.17 340.87) rotate(-142)"/><rect class="cls-1" x="292.28" y="73.33" width="1.57" height="23.55" transform="translate(480.13 326.22) rotate(-144)"/><rect class="cls-1" x="287.96" y="70.31" width="1.57" height="23.55" transform="translate(482.22 311.6) rotate(-146)"/><rect class="cls-1" x="283.53" y="67.44" width="1.57" height="23.55" transform="translate(483.46 297.05) rotate(-148)"/><rect class="cls-1" x="274.4" y="62.16" width="1.57" height="23.55" transform="translate(483.45 268.42) rotate(-152)"/><rect class="cls-1" x="269.7" y="59.77" width="1.57" height="23.55" transform="translate(482.24 254.42) rotate(-154)"/><rect class="cls-1" x="264.92" y="57.54" width="1.57" height="23.55" transform="translate(480.25 240.71) rotate(-156)"/><rect class="cls-1" x="260.07" y="55.48" width="1.57" height="23.55" transform="translate(477.52 227.33) rotate(-158)"/><rect class="cls-1" x="255.14" y="53.59" width="1.57" height="23.55" transform="translate(474.07 214.32) rotate(-160)"/><rect class="cls-1" x="250.16" y="51.87" width="1.57" height="23.55" transform="translate(469.94 201.73) rotate(-162)"/><rect class="cls-1" x="245.12" y="50.33" width="1.57" height="23.55" transform="translate(465.16 189.59) rotate(-164)"/><rect class="cls-1" x="240.02" y="48.97" width="1.57" height="23.55" transform="translate(459.77 177.94) rotate(-166)"/><rect class="cls-1" x="234.88" y="47.78" width="1.57" height="23.55" transform="translate(453.8 166.81) rotate(-168)"/><rect class="cls-1" x="229.71" y="46.78" width="1.57" height="23.55" transform="translate(447.31 156.23) rotate(-170)"/><rect class="cls-1" x="224.5" y="45.95" width="1.57" height="23.55" transform="translate(440.34 146.24) rotate(-172)"/><rect class="cls-1" x="219.26" y="45.31" width="1.57" height="23.55" transform="translate(432.93 136.85) rotate(-174)"/><rect class="cls-1" x="214.01" y="44.85" width="1.57" height="23.55" transform="translate(425.12 128.09) rotate(-176)"/><rect class="cls-1" x="208.74" y="44.57" width="1.57" height="23.55" transform="translate(416.96 119.97) rotate(-178)"/><rect class="cls-1" x="198.2" y="44.57" width="1.57" height="23.55" transform="translate(399.81 105.71) rotate(178)"/><rect class="cls-1" x="192.93" y="44.85" width="1.57" height="23.55" transform="translate(390.91 99.59) rotate(176)"/><rect class="cls-1" x="187.68" y="45.31" width="1.57" height="23.55" transform="translate(381.86 94.15) rotate(174)"/><rect class="cls-1" x="182.44" y="45.95" width="1.57" height="23.55" transform="translate(372.71 89.39) rotate(172)"/><rect class="cls-1" x="177.24" y="46.78" width="1.57" height="23.55" transform="translate(363.51 85.3) rotate(170)"/><rect class="cls-1" x="172.06" y="47.78" width="1.57" height="23.55" transform="translate(354.29 81.87) rotate(168)"/><rect class="cls-1" x="166.92" y="48.97" width="1.57" height="23.55" transform="translate(345.13 79.11) rotate(166)"/><rect class="cls-1" x="161.83" y="50.33" width="1.57" height="23.55" transform="translate(336.04 76.99) rotate(164)"/><rect class="cls-1" x="156.78" y="51.87" width="1.57" height="23.55" transform="translate(327.1 75.49) rotate(162)"/><rect class="cls-1" x="151.8" y="53.59" width="1.57" height="23.55" transform="translate(318.32 74.6) rotate(160)"/><rect class="cls-1" x="146.88" y="55.48" width="1.57" height="23.55" transform="translate(309.76 74.3) rotate(158)"/><rect class="cls-1" x="142.02" y="57.54" width="1.57" height="23.55" transform="translate(301.46 74.56) rotate(156)"/><rect class="cls-1" x="137.24" y="59.77" width="1.57" height="23.55" transform="translate(293.45 75.34) rotate(154)"/><rect class="cls-1" x="132.54" y="62.16" width="1.57" height="23.55" transform="translate(285.76 76.63) rotate(152)"/><rect class="cls-1" x="123.41" y="67.44" width="1.57" height="23.55" transform="translate(271.49 80.57) rotate(148)"/><rect class="cls-1" x="118.99" y="70.31" width="1.57" height="23.55" transform="translate(264.97 83.16) rotate(146)"/><rect class="cls-1" x="114.67" y="73.33" width="1.57" height="23.55" transform="translate(258.88 86.1) rotate(144)"/><rect class="cls-1" x="110.46" y="76.51" width="1.57" height="23.55" transform="translate(253.25 89.36) rotate(142)"/><rect class="cls-1" x="106.36" y="79.83" width="1.57" height="23.55" transform="translate(248.1 92.9) rotate(140)"/><rect class="cls-1" x="102.38" y="83.29" width="1.57" height="23.55" transform="translate(243.44 96.68) rotate(138)"/><rect class="cls-1" x="98.52" y="86.88" width="1.57" height="23.55" transform="translate(239.27 100.64) rotate(136)"/><rect class="cls-1" x="94.79" y="90.61" width="1.57" height="23.55" transform="translate(235.62 104.76) rotate(134)"/><rect class="cls-1" x="91.2" y="94.47" width="1.57" height="23.55" transform="translate(232.48 108.98) rotate(132)"/><rect class="cls-1" x="87.74" y="98.45" width="1.57" height="23.55" transform="translate(229.86 113.26) rotate(130)"/><rect class="cls-1" x="84.42" y="102.55" width="1.57" height="23.55" transform="translate(227.74 117.56) rotate(128)"/><rect class="cls-1" x="81.24" y="106.76" width="1.57" height="23.55" transform="translate(226.14 121.84) rotate(126)"/><rect class="cls-1" x="78.22" y="111.08" width="1.57" height="23.55" transform="translate(225.03 126.05) rotate(124)"/><rect class="cls-1" x="75.35" y="115.5" width="1.57" height="23.55" transform="translate(224.41 130.16) rotate(122)"/><rect class="cls-1" x="70.07" y="124.63" width="1.57" height="23.55" transform="matrix(-0.47, 0.88, -0.88, -0.47, 224.57, 137.88)"/><rect class="cls-1" x="67.68" y="129.33" width="1.57" height="23.55" transform="translate(225.3 141.43) rotate(116)"/><rect class="cls-1" x="65.45" y="134.11" width="1.57" height="23.55" transform="translate(226.45 144.71) rotate(114)"/><rect class="cls-1" x="63.39" y="138.97" width="1.57" height="23.55" transform="translate(227.98 147.71) rotate(112)"/><rect class="cls-1" x="61.5" y="143.89" width="1.57" height="23.55" transform="translate(229.86 150.37) rotate(110)"/><rect class="cls-1" x="59.78" y="148.88" width="1.57" height="23.55" transform="translate(232.07 152.69) rotate(108)"/><rect class="cls-1" x="58.24" y="153.92" width="1.57" height="23.55" transform="translate(234.57 154.62) rotate(106)"/><rect class="cls-1" x="56.88" y="159.01" width="1.57" height="23.55" transform="translate(237.33 156.15) rotate(104)"/><rect class="cls-1" x="55.69" y="164.15" width="1.57" height="23.55" transform="translate(240.3 157.26) rotate(102)"/><rect class="cls-1" x="54.68" y="169.33" width="1.57" height="23.55" transform="translate(243.45 157.92) rotate(100)"/><rect class="cls-1" x="53.86" y="174.54" width="1.57" height="23.55" transform="translate(246.75 158.13) rotate(98)"/><rect class="cls-1" x="53.22" y="179.77" width="1.57" height="23.55" transform="translate(250.14 157.86) rotate(96)"/><rect class="cls-1" x="52.76" y="185.02" width="1.57" height="23.55" transform="translate(253.6 157.11) rotate(94)"/><rect class="cls-1" x="52.48" y="190.29" width="1.57" height="23.55" transform="translate(257.07 155.88) rotate(92)"/><rect class="cls-1" x="52.48" y="200.83" width="1.57" height="23.55" transform="translate(263.89 151.96) rotate(88)"/><rect class="cls-1" x="52.76" y="206.1" width="1.57" height="23.55" transform="translate(267.15 149.27) rotate(86)"/><rect class="cls-1" x="53.22" y="211.35" width="1.57" height="23.55" transform="translate(270.26 146.1) rotate(84)"/><rect class="cls-1" x="53.86" y="216.59" width="1.57" height="23.55" transform="translate(273.18 142.47) rotate(82)"/><rect class="cls-1" x="54.68" y="221.8" width="1.57" height="23.55" transform="translate(275.86 138.39) rotate(80)"/><rect class="cls-1" x="55.69" y="226.97" width="1.57" height="23.55" transform="translate(278.27 133.87) rotate(78)"/><rect class="cls-1" x="56.88" y="232.11" width="1.57" height="23.55" transform="translate(280.35 128.94) rotate(76)"/><rect class="cls-1" x="58.24" y="237.21" width="1.57" height="23.55" transform="translate(282.09 123.61) rotate(74)"/><rect class="cls-1" x="59.78" y="242.25" width="1.57" height="23.55" transform="translate(283.44 117.92) rotate(72)"/><rect class="cls-1" x="61.5" y="247.24" width="1.57" height="23.55" transform="translate(284.37 111.89) rotate(70)"/><rect class="cls-1" x="63.39" y="252.16" width="1.57" height="23.55" transform="translate(284.85 105.56) rotate(68)"/><rect class="cls-1" x="65.45" y="257.01" width="1.57" height="23.55" transform="translate(284.85 98.95) rotate(66)"/><rect class="cls-1" x="67.68" y="261.79" width="1.57" height="23.55" transform="translate(284.33 92.11) rotate(64)"/><rect class="cls-1" x="70.07" y="266.49" width="1.57" height="23.55" transform="translate(283.29 85.06) rotate(62)"/><rect class="cls-1" x="75.35" y="275.62" width="1.57" height="23.55" transform="translate(279.52 70.54) rotate(58)"/><rect class="cls-1" x="78.22" y="280.05" width="1.57" height="23.55" transform="translate(276.76 63.14) rotate(56)"/><rect class="cls-1" x="81.24" y="284.37" width="1.57" height="23.55" transform="translate(273.4 55.71) rotate(54)"/><rect class="cls-1" x="84.42" y="288.58" width="1.57" height="23.55" transform="translate(269.43 48.3) rotate(52)"/><rect class="cls-1" x="87.74" y="292.68" width="1.57" height="23.55" transform="translate(264.84 40.94) rotate(50)"/><rect class="cls-1" x="91.2" y="296.66" width="1.57" height="23.55" transform="translate(259.64 33.7) rotate(48)"/><rect class="cls-1" x="94.79" y="300.51" width="1.57" height="23.55" transform="translate(253.82 26.6) rotate(46)"/><rect class="cls-1" x="98.52" y="304.24" width="1.57" height="23.55" transform="translate(247.39 19.71) rotate(44)"/><rect class="cls-1" x="102.38" y="307.84" width="1.57" height="23.55" transform="translate(240.36 13.06) rotate(42)"/><rect class="cls-1" x="106.36" y="311.3" width="1.57" height="23.55" transform="translate(232.73 6.71) rotate(40)"/><rect class="cls-1" x="110.46" y="314.62" width="1.57" height="23.55" transform="translate(224.53 0.7) rotate(38)"/><rect class="cls-1" x="114.67" y="317.79" width="1.57" height="23.55" transform="translate(215.76 -4.92) rotate(36)"/><rect class="cls-1" x="118.99" y="320.81" width="1.57" height="23.55" transform="translate(206.46 -10.12) rotate(34)"/><rect class="cls-1" x="123.41" y="323.69" width="1.57" height="23.55" transform="translate(196.64 -14.84) rotate(32)"/><rect class="cls-1" x="132.54" y="328.96" width="1.57" height="23.55" transform="translate(175.57 -22.71) rotate(28)"/><rect class="cls-1" x="137.24" y="331.35" width="1.57" height="23.55" transform="translate(164.39 -25.78) rotate(26)"/><rect class="cls-1" x="142.02" y="333.58" width="1.57" height="23.55" transform="translate(152.82 -28.23) rotate(24)"/><rect class="cls-1" x="146.88" y="335.64" width="1.57" height="23.55" transform="translate(140.9 -30.02) rotate(22)"/><rect class="cls-1" x="151.8" y="337.53" width="1.57" height="23.55" transform="translate(128.67 -31.12) rotate(20)"/><rect class="cls-1" x="156.78" y="339.25" width="1.57" height="23.55" transform="translate(116.18 -31.51) rotate(18)"/><rect class="cls-1" x="161.83" y="340.79" width="1.57" height="23.55" transform="translate(103.48 -31.16) rotate(16)"/><rect class="cls-1" x="166.92" y="342.16" width="1.57" height="23.55" transform="translate(90.61 -30.06) rotate(14)"/><rect class="cls-1" x="172.06" y="343.34" width="1.57" height="23.55" transform="translate(77.61 -28.18) rotate(12)"/><rect class="cls-1" x="177.24" y="344.35" width="1.57" height="23.55" transform="translate(64.54 -25.5) rotate(10)"/><rect class="cls-1" x="182.44" y="345.17" width="1.57" height="23.55" transform="translate(51.46 -22.03) rotate(8)"/><rect class="cls-1" x="187.68" y="345.82" width="1.57" height="23.55" transform="matrix(0.99, 0.1, -0.1, 0.99, 38.41, -17.74)"/><rect class="cls-1" x="192.93" y="346.28" width="1.57" height="23.55" transform="translate(25.45 -12.64) rotate(4)"/><rect class="cls-1" x="198.2" y="346.55" width="1.57" height="23.55" transform="translate(12.63 -6.73) rotate(2)"/></g><path class="cls-1" d="M195.52,90.67V88h4.59v-5.8q3.29-.08,3,.26a1.45,1.45,0,0,1-.09.35,5.78,5.78,0,0,0-.17,1.56v17.31H200.1V98.11a32.13,32.13,0,0,0-4.5,2.25q-.26-.43-1.38-2.77a25.82,25.82,0,0,0,5.88-2.25V90.67ZM204.78,82a11.41,11.41,0,0,1,3.12.17v.26a4.67,4.67,0,0,0-.26,1.64v5a24.84,24.84,0,0,0,4-3.12q2,2.34,2.25,2.77-3.12,1.73-6.23,3.29v6c-.06.64.23.92.87.87h2q1,.17,1-3a25.2,25.2,0,0,0,2.86,1.38q-.09,4.5-3.37,4.15h-4q-2.34.09-2.25-2.16Z"/><text class="cls-3" transform="translate(198.62 16.52)">0</text><path class="cls-1" d="M93,44.24l1.43-.82a2.26,2.26,0,0,0,1-3.16c-.63-1.1-1.81-1.39-3.21-.58a2.37,2.37,0,0,0-1.14,3.19l-1.73,1c-1.06-2.15-.26-4.39,2.08-5.75s4.6-1,5.65.86a3.19,3.19,0,0,1-.82,4.2l0,0a3.26,3.26,0,0,1,4.58,1.18c1.19,2.07.13,4.57-2.33,6s-5,1-6.29-1l1.76-1c.77,1.06,2.15,1.3,3.64.44s2-2.25,1.33-3.4-2.16-1.51-3.72-.61l-1.47.85Z"/><path class="cls-1" d="M103.13,38.37l1.43-.82a2.26,2.26,0,0,0,1-3.16c-.63-1.1-1.81-1.39-3.21-.58A2.37,2.37,0,0,0,101.26,37l-1.73,1c-1.06-2.15-.26-4.39,2.08-5.75s4.6-1,5.65.86a3.19,3.19,0,0,1-.82,4.2l0,0A3.26,3.26,0,0,1,111,38.52c1.19,2.07.13,4.57-2.33,6s-5,1-6.29-1l1.76-1c.77,1.06,2.15,1.3,3.64.44s2-2.25,1.33-3.4S107,38.06,105.44,39l-1.47.85Z"/><path class="cls-1" d="M111,35c-2.16-3.74-1.84-7.1,1-8.73s5.87-.23,8,3.52,1.89,7.11-.95,8.75S113.2,38.75,111,35Zm7.16-4.13c-1.63-2.82-3.62-4-5.29-3.05s-1.63,3.3,0,6.11,3.63,4,5.31,3.07S119.83,33.7,118.18,30.84Z"/><path class="cls-1" d="M25.47,122.46,26.3,121a2.26,2.26,0,0,0-.67-3.26c-1.1-.63-2.26-.3-3.07,1.1a2.37,2.37,0,0,0,.61,3.33l-1,1.73c-2-1.34-2.42-3.67-1.07-6s3.5-3.13,5.32-2.08a3.19,3.19,0,0,1,1.39,4l0,0a3.26,3.26,0,0,1,4.56-1.27c2.07,1.19,2.4,3.89,1,6.35s-3.82,3.38-5.92,2.31l1-1.76c1.2.54,2.51.05,3.38-1.44s.61-2.95-.55-3.61-2.62-.23-3.52,1.33l-.85,1.48Z"/><path class="cls-1" d="M30.61,115.57c-3.74-2.16-5.14-5.23-3.51-8s5-3.13,8.71-1,5.19,5.22,3.56,8.05S34.38,117.75,30.61,115.57Zm4.13-7.16c-2.82-1.63-5.14-1.67-6.11,0s.24,3.68,3,5.3,5.16,1.69,6.14,0S37.6,110.06,34.74,108.41Z"/><path class="cls-1" d="M36.64,105.12c-3.74-2.16-5.14-5.23-3.51-8s5-3.13,8.71-1,5.19,5.22,3.56,8.05S40.41,107.3,36.64,105.12ZM40.77,98c-2.82-1.63-5.14-1.67-6.11,0s.24,3.68,3,5.3,5.16,1.69,6.14,0S43.63,99.61,40.77,98Z"/><path class="cls-1" d="M0,218.26c0-2.6,1.66-4.54,3.82-4.54,1.59,0,2.77.85,4.82,2.85L12.07,220h0V213.5h1.79v9.34H12.47l-5-4.93c-1.73-1.67-2.45-2.1-3.52-2.1a2.34,2.34,0,0,0-2.18,2.52,2.51,2.51,0,0,0,2.5,2.62h0v2h0C1.8,223,0,221,0,218.26Z"/><path class="cls-1" d="M2.09,204.79H2V212H.26V202.7H2.09l11.82,5.93v2.22Z"/><path class="cls-1" d="M7.07,201.24c-4.32,0-7.07-2-7.07-5.21s2.73-5.19,7.06-5.19,7.1,1.92,7.1,5.19S11.42,201.24,7.07,201.24Zm0-8.27c-3.25,0-5.29,1.13-5.29,3.06s2,3.06,5.29,3.06S12.38,198,12.38,196,10.37,193,7.07,193Z"/><path class="cls-1" d="M32.81,292.72c1.3,2.25.84,4.76-1,5.84-1.38.79-2.83.65-5.59-.06l-4.68-1.24,0,0,3.24,5.61-1.55.89-4.67-8.09,1.25-.72,6.81,1.76c2.33.58,3.17.59,4.1.06a2.34,2.34,0,0,0,.63-3.27,2.51,2.51,0,0,0-3.47-1h0l-1-1.74h0C28.91,289.55,31.46,290.37,32.81,292.72Z"/><path class="cls-1" d="M29.48,309.37l-3.42-5.92,1.61-.93a93.35,93.35,0,0,1,10.78.47L40,305.65,32,310.24l.94,1.62-1.54.89-.94-1.62-2.33,1.35-1-1.76Zm-.91-5.08L31,308.5l6.55-3.78,0,0a87.63,87.63,0,0,0-8.93-.43Z"/><path class="cls-1" d="M35.72,311.89c3.74-2.16,7.1-1.84,8.73,1s.23,5.87-3.52,8-7.11,1.89-8.75-.95S32,314.06,35.72,311.89ZM39.85,319c2.82-1.63,4-3.62,3.05-5.29s-3.3-1.63-6.11,0-4,3.63-3.07,5.31S37,320.7,39.85,319Z"/><path class="cls-1" d="M99.11,368.7c2.25,1.3,3.1,3.71,2,5.58-.79,1.38-2.12,2-4.87,2.75l-4.67,1.27,0,0,5.61,3.24-.89,1.55-8.09-4.67.72-1.25,6.78-1.89c2.31-.67,3-1.07,3.58-2a2.34,2.34,0,0,0-1.09-3.14,2.51,2.51,0,0,0-3.52.85v0l-1.74-1v0C94.15,367.91,96.76,367.34,99.11,368.7Z"/><path class="cls-1" d="M106.68,375.79l0,0-4.36.41,1-1.8,4.39-.41,1.81,1-6.83,11.82-1.79-1Z"/><path class="cls-1" d="M108.79,382.45c2.16-3.74,5.23-5.14,8-3.51s3.13,5,1,8.71-5.22,5.19-8.05,3.56S106.62,386.21,108.79,382.45Zm7.16,4.13c1.63-2.82,1.67-5.14,0-6.11s-3.68.24-5.3,3-1.69,5.16,0,6.14S114.3,389.44,116,386.58Z"/><path class="cls-1" d="M191.93,399.45h0L188.31,402V399.9l3.59-2.55H194V411h-2.07Z"/><path class="cls-1" d="M197.09,407.31a3.6,3.6,0,0,1,3-3.51v0a3.17,3.17,0,0,1-2.49-3.06c0-2.07,1.94-3.6,4.62-3.6s4.61,1.51,4.61,3.6a3.18,3.18,0,0,1-2.48,3.06v0a3.6,3.6,0,0,1,3,3.51c0,2.32-2.14,3.95-5.17,3.95S197.09,409.62,197.09,407.31Zm8.14-.15c0-1.41-1.23-2.41-3-2.41s-3,1-3,2.41,1.24,2.39,3,2.39S205.22,408.55,205.22,407.16Zm-.45-6.24a2.55,2.55,0,1,0-2.52,2.13A2.26,2.26,0,0,0,204.77,400.92Z"/><path class="cls-1" d="M209.07,404.16c0-4.32,2-7.07,5.21-7.07s5.19,2.73,5.19,7.06-1.92,7.11-5.19,7.11S209.07,408.51,209.07,404.16Zm8.27,0c0-3.25-1.13-5.29-3.06-5.29s-3.07,2-3.07,5.29,1.12,5.32,3.07,5.32S217.34,407.46,217.34,404.16Z"/><path class="cls-1" d="M291.37,380.81l0,0-1.82,4-1-1.8,1.84-4,1.81-1,6.83,11.82-1.79,1Z"/><path class="cls-1" d="M300,384.81l1.75-1a2.66,2.66,0,0,0,3.6.56,2.93,2.93,0,0,0-2.91-5.08,3.1,3.1,0,0,0-1.65,2.61l-1.68,1-3.24-7,7-4.06.89,1.55-5.56,3.21,1.77,3.82,0,0a3.61,3.61,0,0,1,1.95-2.72,4.38,4.38,0,0,1,6.18,1.71,4.66,4.66,0,0,1-2,6.61C303.82,387.25,301.26,386.81,300,384.81Z"/><path class="cls-1" d="M308.26,376.5c-2.16-3.74-1.84-7.1,1-8.73s5.87-.23,8,3.51,1.89,7.11-.95,8.75S310.43,380.27,308.26,376.5Zm7.16-4.13c-1.63-2.82-3.62-4-5.29-3.05s-1.63,3.3,0,6.11,3.63,4,5.31,3.07S317.07,375.22,315.42,372.37Z"/><path class="cls-1" d="M367.47,312.3l0,0,.41,4.36-1.8-1-.41-4.39,1-1.81,11.82,6.83-1,1.79Z"/><path class="cls-1" d="M370.41,302.49c1.3-2.25,3.71-3.1,5.58-2,1.38.79,2,2.12,2.75,4.87L380,310l0,0,3.24-5.61,1.55.89-4.67,8.09-1.24-.72L377,305.91c-.67-2.31-1.07-3-2-3.58a2.34,2.34,0,0,0-3.14,1.09,2.51,2.51,0,0,0,.85,3.52h0l-1,1.74h0C369.62,307.45,369.06,304.84,370.41,302.49Z"/><path class="cls-1" d="M379.74,300.47c-3.74-2.16-5.14-5.23-3.51-8s5-3.13,8.71-1,5.19,5.22,3.56,8.05S383.51,302.64,379.74,300.47Zm4.13-7.16c-2.82-1.63-5.14-1.67-6.11,0s.24,3.68,3,5.3,5.16,1.69,6.14,0S386.73,295,383.87,293.31Z"/><path class="cls-1" d="M398.44,196.65v2.13a2.64,2.64,0,0,0-1.86,2.62c0,2.13,2,3.38,5.41,3.38v0h0a3.9,3.9,0,0,1-2.23-3.75,4.41,4.41,0,0,1,4.51-4.53,4.7,4.7,0,0,1,4.72,5,4.84,4.84,0,0,1-2.87,4.53,8.76,8.76,0,0,1-4,.84c-4.57,0-7.28-2-7.28-5.45A4.55,4.55,0,0,1,398.44,196.65Zm5.86,7.72a2.9,2.9,0,0,0,0-5.8,2.9,2.9,0,0,0,0,5.8Z"/><path class="cls-1" d="M401.91,208.48c4.32,0,7.07,2,7.07,5.21s-2.73,5.19-7.06,5.19-7.11-1.92-7.11-5.19S397.56,208.48,401.91,208.48Zm0,8.27c3.25,0,5.29-1.13,5.29-3.06s-2-3.06-5.29-3.06-5.32,1.12-5.32,3.06S398.61,216.75,401.91,216.75Z"/><path class="cls-1" d="M368.1,104.13a8.74,8.74,0,0,1,3.07-2.74c4-2.29,7.32-1.87,9,1.09a4.54,4.54,0,0,1-.79,5.88l-1.06-1.84a2.62,2.62,0,0,0,.3-3.18c-1.07-1.86-3.39-2-6.37-.26l0,0a4,4,0,0,1,3.79,2.14,4.4,4.4,0,0,1-1.64,6.18,4.7,4.7,0,0,1-6.58-2A4.84,4.84,0,0,1,368.1,104.13Zm5.24,5.52a2.89,2.89,0,0,0-2.86-5,2.89,2.89,0,0,0,2.86,5Z"/><path class="cls-1" d="M377.29,111.6c3.74-2.16,7.1-1.84,8.73,1s.23,5.86-3.52,8-7.11,1.89-8.75-.95S373.53,113.78,377.29,111.6Zm4.13,7.16c2.82-1.63,4-3.62,3.05-5.29s-3.3-1.63-6.11,0-4,3.63-3.07,5.31S378.57,120.41,381.43,118.76Z"/><path class="cls-1" d="M296.59,31.76l1.43.82a2.26,2.26,0,0,0,3.26-.67c.63-1.1.3-2.26-1.1-3.07a2.37,2.37,0,0,0-3.33.61l-1.73-1c1.33-2,3.67-2.42,6-1.07s3.13,3.5,2.08,5.32a3.19,3.19,0,0,1-4,1.39l0,0a3.26,3.26,0,0,1,1.27,4.56c-1.19,2.06-3.88,2.4-6.35,1s-3.38-3.82-2.31-5.92l1.76,1c-.54,1.2-.05,2.51,1.44,3.38s2.95.61,3.61-.55.23-2.62-1.33-3.52l-1.47-.85Z"/><path class="cls-1" d="M303.48,36.9c2.16-3.74,5.23-5.14,8-3.51s3.13,5,1,8.71-5.22,5.19-8,3.56S301.3,40.67,303.48,36.9ZM310.64,41c1.63-2.82,1.67-5.14,0-6.11s-3.68.24-5.3,3-1.69,5.16,0,6.14S309,43.89,310.64,41Z"/><path class="cls-1" d="M81.16,215.73v-13h4.5v-2.6H79.17v-2.42H98.9v2.42H92.32v2.6h4.76v12.89H94.14v-1H83.84v1Zm2.68-3.2h10.3v-1.9H91.37q-1.73.18-1.64-2.16v-3.37H88.17a11.28,11.28,0,0,1-2.77,6.58,8.1,8.1,0,0,0-1-1.3,3.39,3.39,0,0,0-.43-.61,8.63,8.63,0,0,0,1.64-4.67H83.84Zm4.33-12.37v2.6h1.56v-2.6Zm4.15,4.93v2.68q0,.78.69.78h1.13v-3.46Z"/><path class="cls-1" d="M309.7,214.09a13.52,13.52,0,0,0,4.41-5.45,15.9,15.9,0,0,1,2.94,1.21,77.67,77.67,0,0,1-5.19,5.88A12.32,12.32,0,0,0,309.7,214.09Zm.17-12.55v-2.42h5.88a15.8,15.8,0,0,0,.87-3.12q3.29.43,3.55.52c.06.12,0,.29-.17.52a6,6,0,0,1-.35.61,10.74,10.74,0,0,0-.78,1.47h9.87v2.42h-11l-2.08,3.89H319v-3h1.73q1.64-.08,1.47.26a.67.67,0,0,1-.09.26,3.81,3.81,0,0,0-.17,1.21v1.3h5.54v2.42H322v6.32q.52,2.25-4.59,2.16a6,6,0,0,0-1-2.77q3,.17,2.6-.69v-5h-5.11a9.75,9.75,0,0,0-1.73.17,1.41,1.41,0,0,1-.35.09,2.39,2.39,0,0,0-.09-.52,13.56,13.56,0,0,1-.35-2.6h.35a2,2,0,0,0,1.56-.61,11.3,11.3,0,0,0,1.21-2.51.93.93,0,0,1,.17-.35Zm17,13.67a54,54,0,0,0-4.15-5l2.25-1.82a38,38,0,0,1,2.6,3l1.73,2Z"/><path class="cls-1" d="M194.56,317.64v-2.25H203l.26-2.42a8,8,0,0,1,2.68.17c.12,0,.09.2-.09.61v.09a10.43,10.43,0,0,1-.17,1.56h8.48v2.25h-8.74l-.17,1.56h7.36v11.25q.6,2.77-4.33,2.6a7.7,7.7,0,0,0-.87-2.68h.87q1.56.09,1.38-1v-7.87h-2.86q1.38.61,1.47,1c0,.06-.09.17-.26.35a7.19,7.19,0,0,0-1.12,1.21h1.9v2h-3.37v1.21H209v2.08h-3.55v2.68h-2.68v-2.68h-3.2v-2.08h3.2V326h-3.12v-2.08h1.73a8.9,8.9,0,0,0-1-1.64l1.82-.78h-3.46v11.34h-2.6V319.2h6.4l.17-1.56Zm7.88,6.32h2a9.18,9.18,0,0,0,1.12-2.51H203a3.75,3.75,0,0,0,.35.52q.69,1.21.61,1.3Z"/><circle class="cls-4" cx="203.85" cy="208.3" r="53.04"/><rect class="cls-1" x="113.98" y="206.94" width="180.55" height="0.78" transform="translate(411.59 3.08) rotate(90)"/><rect class="cls-1" x="113.98" y="206.94" width="180.55" height="0.78"/><path class="cls-5" d="M196.71,36.32,204,23.06a.69.69,0,0,1,1.21,0l7.34,13.26a.69.69,0,0,1-.61,1H197.31A.69.69,0,0,1,196.71,36.32Z"/></g></g></svg>